<?xml version="1.0" encoding="UTF-8" standalone="no"?>
<!DOCTYPE svg PUBLIC "-//W3C//DTD SVG 1.1//EN"
 "http://www.w3.org/Graphics/SVG/1.1/DTD/svg11.dtd">
<!-- Generated by graphviz version 2.30.1 (20201013.1554)
 -->
<!-- Title: %3 Pages: 1 -->
<svg width="1858pt" height="476pt"
 viewBox="0.00 0.00 1858.00 476.00" xmlns="http://www.w3.org/2000/svg" xmlns:xlink="http://www.w3.org/1999/xlink">
<g id="graph0" class="graph" transform="scale(1 1) rotate(0) translate(4 472)">
<title>%3</title>
<polygon fill="white" stroke="white" points="-4,5 -4,-472 1855,-472 1855,5 -4,5"/>
<!-- [root] aws_instance.db&#45;1 (expand) -->
<g id="node1" class="node"><title>[root] aws_instance.db&#45;1 (expand)</title>
<polygon fill="none" stroke="black" points="1176,-324 1060,-324 1060,-288 1176,-288 1176,-324"/>
<text text-anchor="middle" x="1118" y="-302.3" font-family="Times,serif" font-size="14.00">aws_instance.db&#45;1</text>
</g>
<!-- [root] aws_security_group.database&#45;sg (expand) -->
<g id="node12" class="node"><title>[root] aws_security_group.database&#45;sg (expand)</title>
<polygon fill="none" stroke="black" points="1398,-252 1208,-252 1208,-216 1398,-216 1398,-252"/>
<text text-anchor="middle" x="1303" y="-230.3" font-family="Times,serif" font-size="14.00">aws_security_group.database&#45;sg</text>
</g>
<!-- [root] aws_instance.db&#45;1 (expand)&#45;&gt;[root] aws_security_group.database&#45;sg (expand) -->
<g id="edge1" class="edge"><title>[root] aws_instance.db&#45;1 (expand)&#45;&gt;[root] aws_security_group.database&#45;sg (expand)</title>
<path fill="none" stroke="black" d="M1163.26,-287.876C1189,-278.137 1221.41,-265.872 1248.54,-255.608"/>
<polygon fill="black" stroke="black" points="1249.78,-258.881 1257.89,-252.068 1247.3,-252.334 1249.78,-258.881"/>
</g>
<!-- [root] aws_subnet.iacops&#45;demo&#45;database&#45;subnet&#45;1 (expand) -->
<g id="node15" class="node"><title>[root] aws_subnet.iacops&#45;demo&#45;database&#45;subnet&#45;1 (expand)</title>
<polygon fill="none" stroke="black" points="698,-252 444,-252 444,-216 698,-216 698,-252"/>
<text text-anchor="middle" x="571" y="-230.3" font-family="Times,serif" font-size="14.00">aws_subnet.iacops&#45;demo&#45;database&#45;subnet&#45;1</text>
</g>
<!-- [root] aws_instance.db&#45;1 (expand)&#45;&gt;[root] aws_subnet.iacops&#45;demo&#45;database&#45;subnet&#45;1 (expand) -->
<g id="edge2" class="edge"><title>[root] aws_instance.db&#45;1 (expand)&#45;&gt;[root] aws_subnet.iacops&#45;demo&#45;database&#45;subnet&#45;1 (expand)</title>
<path fill="none" stroke="black" d="M1059.64,-289.665C1056.73,-289.065 1053.84,-288.505 1051,-288 902.913,-261.606 861.488,-269.185 708.293,-252.122"/>
<polygon fill="black" stroke="black" points="708.369,-248.608 698.039,-250.962 707.582,-255.564 708.369,-248.608"/>
</g>
<!-- [root] aws_instance.was&#45;1 (expand) -->
<g id="node2" class="node"><title>[root] aws_instance.was&#45;1 (expand)</title>
<polygon fill="none" stroke="black" points="1458,-324 1336,-324 1336,-288 1458,-288 1458,-324"/>
<text text-anchor="middle" x="1397" y="-302.3" font-family="Times,serif" font-size="14.00">aws_instance.was&#45;1</text>
</g>
<!-- [root] aws_security_group.wasserver&#45;sg (expand) -->
<g id="node13" class="node"><title>[root] aws_security_group.wasserver&#45;sg (expand)</title>
<polygon fill="none" stroke="black" points="1649.25,-252 1454.75,-252 1454.75,-216 1649.25,-216 1649.25,-252"/>
<text text-anchor="middle" x="1552" y="-230.3" font-family="Times,serif" font-size="14.00">aws_security_group.wasserver&#45;sg</text>
</g>
<!-- [root] aws_instance.was&#45;1 (expand)&#45;&gt;[root] aws_security_group.wasserver&#45;sg (expand) -->
<g id="edge3" class="edge"><title>[root] aws_instance.was&#45;1 (expand)&#45;&gt;[root] aws_security_group.wasserver&#45;sg (expand)</title>
<path fill="none" stroke="black" d="M1434.92,-287.876C1456.01,-278.349 1482.46,-266.407 1504.87,-256.283"/>
<polygon fill="black" stroke="black" points="1506.53,-259.374 1514.21,-252.068 1503.65,-252.994 1506.53,-259.374"/>
</g>
<!-- [root] aws_subnet.iacops&#45;demo&#45;was&#45;subnet&#45;1 (expand) -->
<g id="node16" class="node"><title>[root] aws_subnet.iacops&#45;demo&#45;was&#45;subnet&#45;1 (expand)</title>
<polygon fill="none" stroke="black" points="1189.25,-252 962.75,-252 962.75,-216 1189.25,-216 1189.25,-252"/>
<text text-anchor="middle" x="1076" y="-230.3" font-family="Times,serif" font-size="14.00">aws_subnet.iacops&#45;demo&#45;was&#45;subnet&#45;1</text>
</g>
<!-- [root] aws_instance.was&#45;1 (expand)&#45;&gt;[root] aws_subnet.iacops&#45;demo&#45;was&#45;subnet&#45;1 (expand) -->
<g id="edge4" class="edge"><title>[root] aws_instance.was&#45;1 (expand)&#45;&gt;[root] aws_subnet.iacops&#45;demo&#45;was&#45;subnet&#45;1 (expand)</title>
<path fill="none" stroke="black" d="M1335.94,-290.057C1332.92,-289.353 1329.93,-288.664 1327,-288 1275.1,-276.221 1216.96,-263.89 1169.71,-254.089"/>
<polygon fill="black" stroke="black" points="1170.31,-250.637 1159.8,-252.037 1168.89,-257.492 1170.31,-250.637"/>
</g>
<!-- [root] aws_instance.web&#45;1 (expand) -->
<g id="node3" class="node"><title>[root] aws_instance.web&#45;1 (expand)</title>
<polygon fill="none" stroke="black" points="247,-324 123,-324 123,-288 247,-288 247,-324"/>
<text text-anchor="middle" x="185" y="-302.3" font-family="Times,serif" font-size="14.00">aws_instance.web&#45;1</text>
</g>
<!-- [root] aws_security_group.webserver&#45;sg (expand) -->
<g id="node14" class="node"><title>[root] aws_security_group.webserver&#45;sg (expand)</title>
<polygon fill="none" stroke="black" points="1462.25,-180 1265.75,-180 1265.75,-144 1462.25,-144 1462.25,-180"/>
<text text-anchor="middle" x="1364" y="-158.3" font-family="Times,serif" font-size="14.00">aws_security_group.webserver&#45;sg</text>
</g>
<!-- [root] aws_instance.web&#45;1 (expand)&#45;&gt;[root] aws_security_group.webserver&#45;sg (expand) -->
<g id="edge5" class="edge"><title>[root] aws_instance.web&#45;1 (expand)&#45;&gt;[root] aws_security_group.webserver&#45;sg (expand)</title>
<path fill="none" stroke="black" d="M201.659,-287.91C226.386,-262.633 270.398,-218.023 275,-216 363.008,-177.306 997.178,-166.648 1255.22,-163.896"/>
<polygon fill="black" stroke="black" points="1255.39,-167.395 1265.36,-163.79 1255.32,-160.395 1255.39,-167.395"/>
</g>
<!-- [root] aws_subnet.iacops&#45;demo&#45;web&#45;subnet&#45;1 (expand) -->
<g id="node17" class="node"><title>[root] aws_subnet.iacops&#45;demo&#45;web&#45;subnet&#45;1 (expand)</title>
<polygon fill="none" stroke="black" points="228,-252 0,-252 0,-216 228,-216 228,-252"/>
<text text-anchor="middle" x="114" y="-230.3" font-family="Times,serif" font-size="14.00">aws_subnet.iacops&#45;demo&#45;web&#45;subnet&#45;1</text>
</g>
<!-- [root] aws_instance.web&#45;1 (expand)&#45;&gt;[root] aws_subnet.iacops&#45;demo&#45;web&#45;subnet&#45;1 (expand) -->
<g id="edge6" class="edge"><title>[root] aws_instance.web&#45;1 (expand)&#45;&gt;[root] aws_subnet.iacops&#45;demo&#45;web&#45;subnet&#45;1 (expand)</title>
<path fill="none" stroke="black" d="M167.449,-287.697C158.766,-279.135 148.137,-268.656 138.652,-259.304"/>
<polygon fill="black" stroke="black" points="140.927,-256.633 131.349,-252.104 136.012,-261.617 140.927,-256.633"/>
</g>
<!-- [root] aws_instance.web&#45;2 (expand) -->
<g id="node4" class="node"><title>[root] aws_instance.web&#45;2 (expand)</title>
<polygon fill="none" stroke="black" points="1318,-324 1194,-324 1194,-288 1318,-288 1318,-324"/>
<text text-anchor="middle" x="1256" y="-302.3" font-family="Times,serif" font-size="14.00">aws_instance.web&#45;2</text>
</g>
<!-- [root] aws_instance.web&#45;2 (expand)&#45;&gt;[root] aws_security_group.webserver&#45;sg (expand) -->
<g id="edge7" class="edge"><title>[root] aws_instance.web&#45;2 (expand)&#45;&gt;[root] aws_security_group.webserver&#45;sg (expand)</title>
<path fill="none" stroke="black" d="M1314.93,-287.873C1354.81,-275.691 1401.26,-260.103 1407,-252 1421.24,-231.91 1406,-206.378 1389.86,-187.817"/>
<polygon fill="black" stroke="black" points="1392.32,-185.317 1382.97,-180.326 1387.17,-190.056 1392.32,-185.317"/>
</g>
<!-- [root] aws_subnet.iacops&#45;demo&#45;web&#45;subnet&#45;2 (expand) -->
<g id="node18" class="node"><title>[root] aws_subnet.iacops&#45;demo&#45;web&#45;subnet&#45;2 (expand)</title>
<polygon fill="none" stroke="black" points="944,-252 716,-252 716,-216 944,-216 944,-252"/>
<text text-anchor="middle" x="830" y="-230.3" font-family="Times,serif" font-size="14.00">aws_subnet.iacops&#45;demo&#45;web&#45;subnet&#45;2</text>
</g>
<!-- [root] aws_instance.web&#45;2 (expand)&#45;&gt;[root] aws_subnet.iacops&#45;demo&#45;web&#45;subnet&#45;2 (expand) -->
<g id="edge8" class="edge"><title>[root] aws_instance.web&#45;2 (expand)&#45;&gt;[root] aws_subnet.iacops&#45;demo&#45;web&#45;subnet&#45;2 (expand)</title>
<path fill="none" stroke="black" d="M1193.73,-289.767C1190.78,-289.148 1187.86,-288.555 1185,-288 1141.82,-279.624 1038.32,-264.371 954.155,-252.371"/>
<polygon fill="black" stroke="black" points="954.646,-248.906 944.253,-250.961 953.66,-255.836 954.646,-248.906"/>
</g>
<!-- [root] aws_internet_gateway.iacops&#45;demo&#45;igw (expand) -->
<g id="node5" class="node"><title>[root] aws_internet_gateway.iacops&#45;demo&#45;igw (expand)</title>
<polygon fill="none" stroke="black" points="562,-180 332,-180 332,-144 562,-144 562,-180"/>
<text text-anchor="middle" x="447" y="-158.3" font-family="Times,serif" font-size="14.00">aws_internet_gateway.iacops&#45;demo&#45;igw</text>
</g>
<!-- [root] aws_vpc.iacops&#45;demo&#45;vpc (expand) -->
<g id="node19" class="node"><title>[root] aws_vpc.iacops&#45;demo&#45;vpc (expand)</title>
<polygon fill="none" stroke="black" points="752.25,-108 593.75,-108 593.75,-72 752.25,-72 752.25,-108"/>
<text text-anchor="middle" x="673" y="-86.3" font-family="Times,serif" font-size="14.00">aws_vpc.iacops&#45;demo&#45;vpc</text>
</g>
<!-- [root] aws_internet_gateway.iacops&#45;demo&#45;igw (expand)&#45;&gt;[root] aws_vpc.iacops&#45;demo&#45;vpc (expand) -->
<g id="edge9" class="edge"><title>[root] aws_internet_gateway.iacops&#45;demo&#45;igw (expand)&#45;&gt;[root] aws_vpc.iacops&#45;demo&#45;vpc (expand)</title>
<path fill="none" stroke="black" d="M501.997,-143.966C533.986,-134.057 574.484,-121.514 608.038,-111.121"/>
<polygon fill="black" stroke="black" points="609.24,-114.413 617.757,-108.111 607.169,-107.726 609.24,-114.413"/>
</g>
<!-- [root] aws_route_table.web&#45;rt (expand) -->
<g id="node6" class="node"><title>[root] aws_route_table.web&#45;rt (expand)</title>
<polygon fill="none" stroke="black" points="426,-252 284,-252 284,-216 426,-216 426,-252"/>
<text text-anchor="middle" x="355" y="-230.3" font-family="Times,serif" font-size="14.00">aws_route_table.web&#45;rt</text>
</g>
<!-- [root] aws_route_table.web&#45;rt (expand)&#45;&gt;[root] aws_internet_gateway.iacops&#45;demo&#45;igw (expand) -->
<g id="edge10" class="edge"><title>[root] aws_route_table.web&#45;rt (expand)&#45;&gt;[root] aws_internet_gateway.iacops&#45;demo&#45;igw (expand)</title>
<path fill="none" stroke="black" d="M377.742,-215.697C389.44,-206.796 403.861,-195.823 416.51,-186.199"/>
<polygon fill="black" stroke="black" points="418.681,-188.945 424.52,-180.104 414.442,-183.374 418.681,-188.945"/>
</g>
<!-- [root] aws_route_table_association.a (expand) -->
<g id="node7" class="node"><title>[root] aws_route_table_association.a (expand)</title>
<polygon fill="none" stroke="black" points="445,-324 265,-324 265,-288 445,-288 445,-324"/>
<text text-anchor="middle" x="355" y="-302.3" font-family="Times,serif" font-size="14.00">aws_route_table_association.a</text>
</g>
<!-- [root] aws_route_table_association.a (expand)&#45;&gt;[root] aws_route_table.web&#45;rt (expand) -->
<g id="edge11" class="edge"><title>[root] aws_route_table_association.a (expand)&#45;&gt;[root] aws_route_table.web&#45;rt (expand)</title>
<path fill="none" stroke="black" d="M355,-287.697C355,-279.983 355,-270.712 355,-262.112"/>
<polygon fill="black" stroke="black" points="358.5,-262.104 355,-252.104 351.5,-262.104 358.5,-262.104"/>
</g>
<!-- [root] aws_route_table_association.a (expand)&#45;&gt;[root] aws_subnet.iacops&#45;demo&#45;web&#45;subnet&#45;1 (expand) -->
<g id="edge12" class="edge"><title>[root] aws_route_table_association.a (expand)&#45;&gt;[root] aws_subnet.iacops&#45;demo&#45;web&#45;subnet&#45;1 (expand)</title>
<path fill="none" stroke="black" d="M296.353,-287.966C262.094,-278.015 218.684,-265.406 182.814,-254.987"/>
<polygon fill="black" stroke="black" points="183.489,-251.539 172.91,-252.111 181.537,-258.261 183.489,-251.539"/>
</g>
<!-- [root] aws_route_table_association.b (expand) -->
<g id="node8" class="node"><title>[root] aws_route_table_association.b (expand)</title>
<polygon fill="none" stroke="black" points="843.25,-324 662.75,-324 662.75,-288 843.25,-288 843.25,-324"/>
<text text-anchor="middle" x="753" y="-302.3" font-family="Times,serif" font-size="14.00">aws_route_table_association.b</text>
</g>
<!-- [root] aws_route_table_association.b (expand)&#45;&gt;[root] aws_route_table.web&#45;rt (expand) -->
<g id="edge13" class="edge"><title>[root] aws_route_table_association.b (expand)&#45;&gt;[root] aws_route_table.web&#45;rt (expand)</title>
<path fill="none" stroke="black" d="M662.52,-289.599C659.307,-289.058 656.126,-288.524 653,-288 559.27,-272.294 533.162,-270.327 436.013,-252.149"/>
<polygon fill="black" stroke="black" points="436.541,-248.687 426.066,-250.278 435.247,-255.566 436.541,-248.687"/>
</g>
<!-- [root] aws_route_table_association.b (expand)&#45;&gt;[root] aws_subnet.iacops&#45;demo&#45;web&#45;subnet&#45;2 (expand) -->
<g id="edge14" class="edge"><title>[root] aws_route_table_association.b (expand)&#45;&gt;[root] aws_subnet.iacops&#45;demo&#45;web&#45;subnet&#45;2 (expand)</title>
<path fill="none" stroke="black" d="M772.034,-287.697C781.545,-279.05 793.207,-268.449 803.57,-259.027"/>
<polygon fill="black" stroke="black" points="806.14,-261.421 811.185,-252.104 801.431,-256.241 806.14,-261.421"/>
</g>
<!-- [root] aws_route_table_association.c (expand) -->
<g id="node9" class="node"><title>[root] aws_route_table_association.c (expand)</title>
<polygon fill="none" stroke="black" points="1042,-324 862,-324 862,-288 1042,-288 1042,-324"/>
<text text-anchor="middle" x="952" y="-302.3" font-family="Times,serif" font-size="14.00">aws_route_table_association.c</text>
</g>
<!-- [root] aws_route_table_association.c (expand)&#45;&gt;[root] aws_route_table.web&#45;rt (expand) -->
<g id="edge15" class="edge"><title>[root] aws_route_table_association.c (expand)&#45;&gt;[root] aws_route_table.web&#45;rt (expand)</title>
<path fill="none" stroke="black" d="M861.835,-289.321C858.518,-288.856 855.232,-288.413 852,-288 670.725,-264.807 620.743,-278.87 436.062,-252.045"/>
<polygon fill="black" stroke="black" points="436.421,-248.561 426.017,-250.566 435.401,-255.486 436.421,-248.561"/>
</g>
<!-- [root] aws_route_table_association.c (expand)&#45;&gt;[root] aws_subnet.iacops&#45;demo&#45;was&#45;subnet&#45;1 (expand) -->
<g id="edge16" class="edge"><title>[root] aws_route_table_association.c (expand)&#45;&gt;[root] aws_subnet.iacops&#45;demo&#45;was&#45;subnet&#45;1 (expand)</title>
<path fill="none" stroke="black" d="M982.334,-287.876C998.697,-278.639 1019.08,-267.131 1036.65,-257.212"/>
<polygon fill="black" stroke="black" points="1038.56,-260.154 1045.55,-252.19 1035.12,-254.058 1038.56,-260.154"/>
</g>
<!-- [root] aws_route_table_association.d (expand) -->
<g id="node10" class="node"><title>[root] aws_route_table_association.d (expand)</title>
<polygon fill="none" stroke="black" points="644.25,-324 463.75,-324 463.75,-288 644.25,-288 644.25,-324"/>
<text text-anchor="middle" x="554" y="-302.3" font-family="Times,serif" font-size="14.00">aws_route_table_association.d</text>
</g>
<!-- [root] aws_route_table_association.d (expand)&#45;&gt;[root] aws_route_table.web&#45;rt (expand) -->
<g id="edge17" class="edge"><title>[root] aws_route_table_association.d (expand)&#45;&gt;[root] aws_route_table.web&#45;rt (expand)</title>
<path fill="none" stroke="black" d="M505.574,-287.966C477.769,-278.185 442.664,-265.836 413.346,-255.524"/>
<polygon fill="black" stroke="black" points="414.238,-252.127 403.644,-252.111 411.916,-258.731 414.238,-252.127"/>
</g>
<!-- [root] aws_route_table_association.d (expand)&#45;&gt;[root] aws_subnet.iacops&#45;demo&#45;database&#45;subnet&#45;1 (expand) -->
<g id="edge18" class="edge"><title>[root] aws_route_table_association.d (expand)&#45;&gt;[root] aws_subnet.iacops&#45;demo&#45;database&#45;subnet&#45;1 (expand)</title>
<path fill="none" stroke="black" d="M558.202,-287.697C560.096,-279.898 562.377,-270.509 564.484,-261.829"/>
<polygon fill="black" stroke="black" points="567.887,-262.648 566.846,-252.104 561.085,-260.996 567.887,-262.648"/>
</g>
<!-- [root] aws_security_group.bastion&#45;sg (expand) -->
<g id="node11" class="node"><title>[root] aws_security_group.bastion&#45;sg (expand)</title>
<polygon fill="none" stroke="black" points="1850,-252 1668,-252 1668,-216 1850,-216 1850,-252"/>
<text text-anchor="middle" x="1759" y="-230.3" font-family="Times,serif" font-size="14.00">aws_security_group.bastion&#45;sg</text>
</g>
<!-- [root] aws_security_group.bastion&#45;sg (expand)&#45;&gt;[root] aws_security_group.webserver&#45;sg (expand) -->
<g id="edge19" class="edge"><title>[root] aws_security_group.bastion&#45;sg (expand)&#45;&gt;[root] aws_security_group.webserver&#45;sg (expand)</title>
<path fill="none" stroke="black" d="M1667.88,-216.853C1608.96,-206.411 1532.04,-192.779 1470.33,-181.843"/>
<polygon fill="black" stroke="black" points="1470.63,-178.341 1460.17,-180.043 1469.4,-185.234 1470.63,-178.341"/>
</g>
<!-- [root] aws_security_group.database&#45;sg (expand)&#45;&gt;[root] aws_security_group.webserver&#45;sg (expand) -->
<g id="edge20" class="edge"><title>[root] aws_security_group.database&#45;sg (expand)&#45;&gt;[root] aws_security_group.webserver&#45;sg (expand)</title>
<path fill="none" stroke="black" d="M1318.08,-215.697C1325.39,-207.305 1334.31,-197.07 1342.34,-187.861"/>
<polygon fill="black" stroke="black" points="1345.16,-189.943 1349.09,-180.104 1339.89,-185.344 1345.16,-189.943"/>
</g>
<!-- [root] aws_security_group.wasserver&#45;sg (expand)&#45;&gt;[root] aws_security_group.webserver&#45;sg (expand) -->
<g id="edge21" class="edge"><title>[root] aws_security_group.wasserver&#45;sg (expand)&#45;&gt;[root] aws_security_group.webserver&#45;sg (expand)</title>
<path fill="none" stroke="black" d="M1506.01,-215.876C1479.85,-206.137 1446.91,-193.872 1419.35,-183.608"/>
<polygon fill="black" stroke="black" points="1420.43,-180.278 1409.84,-180.068 1417.99,-186.838 1420.43,-180.278"/>
</g>
<!-- [root] aws_security_group.webserver&#45;sg (expand)&#45;&gt;[root] aws_vpc.iacops&#45;demo&#45;vpc (expand) -->
<g id="edge22" class="edge"><title>[root] aws_security_group.webserver&#45;sg (expand)&#45;&gt;[root] aws_vpc.iacops&#45;demo&#45;vpc (expand)</title>
<path fill="none" stroke="black" d="M1265.73,-151.045C1131.41,-137.438 892.403,-113.226 762.71,-100.088"/>
<polygon fill="black" stroke="black" points="762.719,-96.571 752.418,-99.0452 762.014,-103.535 762.719,-96.571"/>
</g>
<!-- [root] aws_subnet.iacops&#45;demo&#45;database&#45;subnet&#45;1 (expand)&#45;&gt;[root] aws_vpc.iacops&#45;demo&#45;vpc (expand) -->
<g id="edge23" class="edge"><title>[root] aws_subnet.iacops&#45;demo&#45;database&#45;subnet&#45;1 (expand)&#45;&gt;[root] aws_vpc.iacops&#45;demo&#45;vpc (expand)</title>
<path fill="none" stroke="black" d="M583.304,-215.871C601.07,-191.137 634.037,-145.242 654.674,-116.512"/>
<polygon fill="black" stroke="black" points="657.661,-118.353 660.653,-108.189 651.976,-114.269 657.661,-118.353"/>
</g>
<!-- [root] aws_subnet.iacops&#45;demo&#45;was&#45;subnet&#45;1 (expand)&#45;&gt;[root] aws_vpc.iacops&#45;demo&#45;vpc (expand) -->
<g id="edge24" class="edge"><title>[root] aws_subnet.iacops&#45;demo&#45;was&#45;subnet&#45;1 (expand)&#45;&gt;[root] aws_vpc.iacops&#45;demo&#45;vpc (expand)</title>
<path fill="none" stroke="black" d="M1027.39,-215.871C953.007,-189.663 811.197,-139.695 731.363,-111.565"/>
<polygon fill="black" stroke="black" points="732.064,-108.101 721.47,-108.079 729.738,-114.703 732.064,-108.101"/>
</g>
<!-- [root] aws_subnet.iacops&#45;demo&#45;web&#45;subnet&#45;1 (expand)&#45;&gt;[root] aws_vpc.iacops&#45;demo&#45;vpc (expand) -->
<g id="edge25" class="edge"><title>[root] aws_subnet.iacops&#45;demo&#45;web&#45;subnet&#45;1 (expand)&#45;&gt;[root] aws_vpc.iacops&#45;demo&#45;vpc (expand)</title>
<path fill="none" stroke="black" d="M146.72,-215.99C187.083,-195.737 258.312,-162.352 323,-144 409.641,-119.42 511.778,-105.614 583.279,-98.3013"/>
<polygon fill="black" stroke="black" points="583.999,-101.747 593.601,-97.269 583.302,-94.7816 583.999,-101.747"/>
</g>
<!-- [root] aws_subnet.iacops&#45;demo&#45;web&#45;subnet&#45;2 (expand)&#45;&gt;[root] aws_vpc.iacops&#45;demo&#45;vpc (expand) -->
<g id="edge26" class="edge"><title>[root] aws_subnet.iacops&#45;demo&#45;web&#45;subnet&#45;2 (expand)&#45;&gt;[root] aws_vpc.iacops&#45;demo&#45;vpc (expand)</title>
<path fill="none" stroke="black" d="M811.062,-215.871C783.244,-190.711 731.216,-143.654 699.581,-115.042"/>
<polygon fill="black" stroke="black" points="701.769,-112.301 692.005,-108.189 697.074,-117.493 701.769,-112.301"/>
</g>
<!-- [root] provider[&quot;registry.terraform.io/hashicorp/aws&quot;] -->
<g id="node20" class="node"><title>[root] provider[&quot;registry.terraform.io/hashicorp/aws&quot;]</title>
<polygon fill="none" stroke="black" points="673,-36 422.984,-18 673,-3.55271e-15 923.016,-18 673,-36"/>
<text text-anchor="middle" x="673" y="-14.3" font-family="Times,serif" font-size="14.00">provider[&quot;registry.terraform.io/hashicorp/aws&quot;]</text>
</g>
<!-- [root] aws_vpc.iacops&#45;demo&#45;vpc (expand)&#45;&gt;[root] provider[&quot;registry.terraform.io/hashicorp/aws&quot;] -->
<g id="edge27" class="edge"><title>[root] aws_vpc.iacops&#45;demo&#45;vpc (expand)&#45;&gt;[root] provider[&quot;registry.terraform.io/hashicorp/aws&quot;]</title>
<path fill="none" stroke="black" d="M673,-71.6966C673,-63.9827 673,-54.7125 673,-46.1124"/>
<polygon fill="black" stroke="black" points="676.5,-46.1043 673,-36.1043 669.5,-46.1044 676.5,-46.1043"/>
</g>
<!-- [root] provider[&quot;registry.terraform.io/hashicorp/aws&quot;] (close) -->
<g id="node21" class="node"><title>[root] provider[&quot;registry.terraform.io/hashicorp/aws&quot;] (close)</title>
<ellipse fill="none" stroke="black" cx="952" cy="-378" rx="225.295" ry="18"/>
<text text-anchor="middle" x="952" y="-374.3" font-family="Times,serif" font-size="14.00">[root] provider[&quot;registry.terraform.io/hashicorp/aws&quot;] (close)</text>
</g>
<!-- [root] provider[&quot;registry.terraform.io/hashicorp/aws&quot;] (close)&#45;&gt;[root] aws_instance.db&#45;1 (expand) -->
<g id="edge28" class="edge"><title>[root] provider[&quot;registry.terraform.io/hashicorp/aws&quot;] (close)&#45;&gt;[root] aws_instance.db&#45;1 (expand)</title>
<path fill="none" stroke="black" d="M991.761,-360.233C1014.62,-350.592 1043.56,-338.391 1067.96,-328.102"/>
<polygon fill="black" stroke="black" points="1069.56,-331.227 1077.41,-324.116 1066.84,-324.777 1069.56,-331.227"/>
</g>
<!-- [root] provider[&quot;registry.terraform.io/hashicorp/aws&quot;] (close)&#45;&gt;[root] aws_instance.was&#45;1 (expand) -->
<g id="edge29" class="edge"><title>[root] provider[&quot;registry.terraform.io/hashicorp/aws&quot;] (close)&#45;&gt;[root] aws_instance.was&#45;1 (expand)</title>
<path fill="none" stroke="black" d="M1074.1,-362.812C1145,-353.839 1236.19,-341.05 1325.91,-324.111"/>
<polygon fill="black" stroke="black" points="1326.83,-327.499 1335.99,-322.188 1325.51,-320.623 1326.83,-327.499"/>
</g>
<!-- [root] provider[&quot;registry.terraform.io/hashicorp/aws&quot;] (close)&#45;&gt;[root] aws_instance.web&#45;1 (expand) -->
<g id="edge30" class="edge"><title>[root] provider[&quot;registry.terraform.io/hashicorp/aws&quot;] (close)&#45;&gt;[root] aws_instance.web&#45;1 (expand)</title>
<path fill="none" stroke="black" d="M749.625,-370.09C612.869,-363.385 428.251,-350.385 257.174,-324.04"/>
<polygon fill="black" stroke="black" points="257.646,-320.572 247.226,-322.491 256.569,-327.488 257.646,-320.572"/>
</g>
<!-- [root] provider[&quot;registry.terraform.io/hashicorp/aws&quot;] (close)&#45;&gt;[root] aws_instance.web&#45;2 (expand) -->
<g id="edge31" class="edge"><title>[root] provider[&quot;registry.terraform.io/hashicorp/aws&quot;] (close)&#45;&gt;[root] aws_instance.web&#45;2 (expand)</title>
<path fill="none" stroke="black" d="M1023.69,-360.914C1067.36,-351.063 1124.56,-338.07 1183.77,-324.277"/>
<polygon fill="black" stroke="black" points="1184.73,-327.646 1193.67,-321.966 1183.14,-320.829 1184.73,-327.646"/>
</g>
<!-- [root] provider[&quot;registry.terraform.io/hashicorp/aws&quot;] (close)&#45;&gt;[root] aws_route_table_association.a (expand) -->
<g id="edge32" class="edge"><title>[root] provider[&quot;registry.terraform.io/hashicorp/aws&quot;] (close)&#45;&gt;[root] aws_route_table_association.a (expand)</title>
<path fill="none" stroke="black" d="M807.871,-364.123C710.899,-354.872 579.962,-341.252 455.192,-324.118"/>
<polygon fill="black" stroke="black" points="455.455,-320.621 445.07,-322.718 454.496,-327.555 455.455,-320.621"/>
</g>
<!-- [root] provider[&quot;registry.terraform.io/hashicorp/aws&quot;] (close)&#45;&gt;[root] aws_route_table_association.b (expand) -->
<g id="edge33" class="edge"><title>[root] provider[&quot;registry.terraform.io/hashicorp/aws&quot;] (close)&#45;&gt;[root] aws_route_table_association.b (expand)</title>
<path fill="none" stroke="black" d="M904.587,-360.322C876.475,-350.434 840.638,-337.827 810.867,-327.355"/>
<polygon fill="black" stroke="black" points="812.027,-324.053 801.432,-324.036 809.704,-330.656 812.027,-324.053"/>
</g>
<!-- [root] provider[&quot;registry.terraform.io/hashicorp/aws&quot;] (close)&#45;&gt;[root] aws_route_table_association.c (expand) -->
<g id="edge34" class="edge"><title>[root] provider[&quot;registry.terraform.io/hashicorp/aws&quot;] (close)&#45;&gt;[root] aws_route_table_association.c (expand)</title>
<path fill="none" stroke="black" d="M952,-359.697C952,-351.983 952,-342.712 952,-334.112"/>
<polygon fill="black" stroke="black" points="955.5,-334.104 952,-324.104 948.5,-334.104 955.5,-334.104"/>
</g>
<!-- [root] provider[&quot;registry.terraform.io/hashicorp/aws&quot;] (close)&#45;&gt;[root] aws_route_table_association.d (expand) -->
<g id="edge35" class="edge"><title>[root] provider[&quot;registry.terraform.io/hashicorp/aws&quot;] (close)&#45;&gt;[root] aws_route_table_association.d (expand)</title>
<path fill="none" stroke="black" d="M863.176,-361.378C801.307,-350.496 718.69,-335.966 654.425,-324.663"/>
<polygon fill="black" stroke="black" points="654.729,-321.163 644.274,-322.877 653.517,-328.057 654.729,-321.163"/>
</g>
<!-- [root] provider[&quot;registry.terraform.io/hashicorp/aws&quot;] (close)&#45;&gt;[root] aws_security_group.bastion&#45;sg (expand) -->
<g id="edge36" class="edge"><title>[root] provider[&quot;registry.terraform.io/hashicorp/aws&quot;] (close)&#45;&gt;[root] aws_security_group.bastion&#45;sg (expand)</title>
<path fill="none" stroke="black" d="M1131.44,-367.08C1231,-359.443 1356.65,-346.277 1467,-324 1550.85,-307.072 1645.05,-276.109 1703.21,-255.539"/>
<polygon fill="black" stroke="black" points="1704.69,-258.729 1712.93,-252.078 1702.34,-252.134 1704.69,-258.729"/>
</g>
<!-- [root] root -->
<g id="node22" class="node"><title>[root] root</title>
<ellipse fill="none" stroke="black" cx="952" cy="-450" rx="47.169" ry="18"/>
<text text-anchor="middle" x="952" y="-446.3" font-family="Times,serif" font-size="14.00">[root] root</text>
</g>
<!-- [root] root&#45;&gt;[root] provider[&quot;registry.terraform.io/hashicorp/aws&quot;] (close) -->
<g id="edge37" class="edge"><title>[root] root&#45;&gt;[root] provider[&quot;registry.terraform.io/hashicorp/aws&quot;] (close)</title>
<path fill="none" stroke="black" d="M952,-431.697C952,-423.983 952,-414.712 952,-406.112"/>
<polygon fill="black" stroke="black" points="955.5,-406.104 952,-396.104 948.5,-406.104 955.5,-406.104"/>
</g>
</g>
</svg>
